<?xml version="1.0" standalone="no"?>
<!DOCTYPE svg PUBLIC "-//W3C//DTD SVG 20010904//EN"
 "http://www.w3.org/TR/2001/REC-SVG-20010904/DTD/svg10.dtd">
<svg version="1.0" xmlns="http://www.w3.org/2000/svg"
 width="135.000000pt" height="135.000000pt" viewBox="0 0 135.000000 135.000000"
 preserveAspectRatio="xMidYMid meet">

<g transform="translate(0.000000,135.000000) scale(0.100000,-0.100000)"
fill="#000000" stroke="none">
<path d="M454 1301 c-99 -25 -195 -105 -242 -200 -25 -53 -27 -64 -26 -186 0
-120 9 -179 40 -259 4 -10 -27 -47 -90 -109 -86 -84 -96 -98 -96 -129 0 -43
44 -103 137 -188 104 -96 230 -159 369 -186 384 -73 678 158 769 606 27 132
-1 217 -83 248 -15 6 -71 14 -124 17 -54 4 -101 12 -106 18 -4 7 -15 32 -22
56 -35 111 -137 225 -249 279 -66 32 -85 36 -160 39 -47 1 -100 -1 -117 -6z
m230 -114 c73 -34 149 -111 186 -189 17 -35 30 -68 30 -75 0 -7 -27 -13 -77
-16 -115 -6 -338 -93 -455 -177 -29 -21 -45 -27 -53 -20 -19 16 -40 128 -40
215 0 67 5 89 28 137 69 141 230 194 381 125z m356 -390 c14 -26 14 -29 -5
-43 -11 -8 -29 -13 -40 -12 -22 3 -41 47 -32 72 11 27 58 16 77 -17z m-174
-11 c11 -46 1 -60 -56 -78 -68 -22 -86 -17 -95 29 -8 43 1 53 52 63 74 15 92
12 99 -14z m342 12 c21 -21 14 -38 -16 -38 -30 0 -52 16 -52 37 0 16 52 17 68
1z m-578 -115 c0 -31 -5 -36 -45 -54 -25 -11 -50 -17 -55 -14 -6 3 -10 23 -10
44 0 40 13 57 59 77 33 15 51 -5 51 -53z m444 -55 c13 -38 -7 -60 -53 -56 -33
3 -36 6 -36 33 0 21 7 33 25 42 35 18 53 12 64 -19z m141 22 c7 -12 -12 -50
-26 -50 -13 0 -22 27 -15 45 6 17 32 20 41 5z m-791 -26 c14 -37 6 -70 -24
-92 -38 -29 -58 -28 -70 4 -15 38 -13 41 32 74 47 34 54 36 62 14z m454 -41
c-3 -34 -6 -37 -52 -50 -55 -16 -68 -8 -64 37 2 19 12 27 43 36 69 21 77 19
73 -23z m-214 -49 c12 -32 5 -45 -40 -67 -45 -22 -46 -22 -60 -2 -19 26 -14
36 32 62 47 27 60 28 68 7z m-416 -60 c14 -30 9 -42 -36 -79 -26 -22 -35 -25
-47 -15 -8 7 -15 20 -15 28 0 15 67 92 80 92 4 0 12 -12 18 -26z m819 -30 c-8
-49 -23 -64 -63 -64 -31 0 -34 3 -34 28 0 45 27 69 79 71 22 1 23 -2 18 -35z
m-599 -18 c5 -24 -16 -46 -44 -46 -31 0 -32 32 -1 53 26 19 41 17 45 -7z m410
-9 c5 -25 -25 -67 -47 -67 -33 0 -43 62 -13 79 25 15 56 9 60 -12z m-170 -81
c-2 -25 -8 -32 -30 -34 -21 -3 -30 3 -43 28 l-16 31 33 13 c41 18 60 5 56 -38z
m-388 -9 c0 -19 -21 -37 -42 -37 -22 0 -23 8 -1 32 19 21 43 24 43 5z m224
-39 c32 -46 9 -65 -35 -30 -14 12 -20 25 -16 35 9 24 33 21 51 -5z m466 -20
c0 -16 -41 -58 -57 -58 -18 0 -16 35 3 54 18 19 54 21 54 4z m-590 -63 c25
-27 16 -32 -25 -13 -26 12 -35 38 -12 38 8 0 24 -11 37 -25z m245 -65 c3 -5 1
-10 -4 -10 -6 0 -11 5 -11 10 0 6 2 10 4 10 3 0 8 -4 11 -10z"/>
</g>
</svg>
