<?xml version="1.0" standalone="no"?>
<!DOCTYPE svg PUBLIC "-//W3C//DTD SVG 20010904//EN"
 "http://www.w3.org/TR/2001/REC-SVG-20010904/DTD/svg10.dtd">
<svg version="1.0" xmlns="http://www.w3.org/2000/svg"
 width="184.000000pt" height="178.000000pt" viewBox="0 0 184.000000 178.000000"
 preserveAspectRatio="xMidYMid meet">

<g transform="translate(0.000000,178.000000) scale(0.100000,-0.100000)"
fill="#000000" stroke="none">
<path d="M352 1699 c-103 -50 -122 -69 -122 -118 0 -21 129 -151 163 -165 20
-8 18 -10 -18 -16 -22 -3 -55 -14 -73 -23 -18 -10 -48 -17 -66 -15 -65 4 -136
-60 -136 -121 0 -11 -6 -21 -14 -24 -8 -3 -18 -26 -21 -51 -6 -40 -4 -50 30
-101 21 -30 47 -61 59 -67 11 -6 46 -30 76 -53 119 -92 164 -104 420 -115 225
-9 299 -23 535 -99 159 -51 266 -81 290 -81 29 0 6 15 -45 29 -25 7 -53 17
-62 22 -10 5 -25 9 -33 9 -8 0 -23 4 -33 9 -9 5 -48 19 -87 32 -38 12 -79 25
-90 30 -108 44 -357 88 -495 88 -58 -1 -143 5 -189 11 -81 12 -87 15 -180 85
-151 113 -187 166 -147 220 12 17 16 17 34 4 89 -65 114 -80 124 -77 6 2 -5
15 -26 27 -39 25 -96 94 -96 117 0 7 14 29 31 49 27 31 36 35 61 29 17 -3 45
-23 64 -44 43 -48 101 -87 139 -95 l30 -6 -35 28 c-69 56 -120 106 -120 118 0
7 13 18 30 25 37 15 118 -2 170 -36 45 -30 144 -64 185 -64 36 0 53 -12 191
-131 156 -135 313 -259 327 -259 8 0 31 -13 53 -30 21 -16 46 -30 55 -30 9 0
28 -9 42 -20 14 -11 31 -20 39 -20 7 0 49 -18 92 -40 43 -22 83 -40 89 -40 14
0 77 -49 77 -60 0 -10 -59 -8 -75 2 -5 3 -30 8 -55 12 -38 5 -34 2 30 -19 96
-32 134 -30 138 7 3 29 10 25 -313 179 -186 89 -344 201 -501 356 -93 92 -100
111 -34 92 14 -4 59 -15 100 -24 94 -21 265 -109 360 -185 38 -30 125 -101
194 -158 130 -107 180 -135 225 -130 22 3 26 8 26 35 0 64 -223 283 -655 643
-215 180 -392 275 -545 295 -27 3 -63 8 -80 10 -22 3 -59 -10 -133 -46z m294
-10 c25 -10 51 -19 57 -19 21 0 133 -63 224 -125 103 -70 273 -209 387 -316
45 -42 133 -122 196 -178 63 -56 122 -111 129 -124 8 -12 32 -39 53 -59 39
-38 51 -78 22 -78 -15 0 -66 38 -273 205 -51 41 -97 75 -102 75 -4 0 -36 21
-71 48 -127 96 -245 142 -433 168 -108 15 -133 22 -166 46 -64 46 -62 70 7
103 25 12 33 20 26 27 -17 17 -61 0 -98 -37 -39 -39 -43 -40 -99 -21 -69 24
-88 96 -35 131 34 23 37 33 14 42 -19 7 -70 -42 -76 -73 -11 -59 -128 6 -128
71 0 40 5 44 117 101 82 42 92 44 146 39 32 -3 78 -15 103 -26z"/>
</g>
</svg>
